<svg width="28" height="13" viewBox="0 0 28 13" fill="none" xmlns="http://www.w3.org/2000/svg">
<path opacity="0.35" d="M1.09882 4C1.09882 2.067 2.66582 0.5 4.59882 0.5H21.5988C23.5318 0.5 25.0988 2.067 25.0988 4V9C25.0988 10.933 23.5318 12.5 21.5988 12.5H4.59882C2.66582 12.5 1.09882 10.933 1.09882 9V4Z" stroke="white"/>
<path opacity="0.4" d="M26.5988 5V9.22034C27.4479 8.86291 28 8.0314 28 7.11017C28 6.18894 27.4479 5.35744 26.5988 5Z" fill="white"/>
<path d="M2.59882 4C2.59882 2.89543 3.49425 2 4.59882 2H21.5988C22.7034 2 23.5988 2.89543 23.5988 4V9C23.5988 10.1046 22.7034 11 21.5988 11H4.59882C3.49425 11 2.59882 10.1046 2.59882 9V4Z" fill="white"/>
</svg>
