<svg width="19" height="12" viewBox="0 0 19 12" fill="none" xmlns="http://www.w3.org/2000/svg">
<path d="M10.5988 3C10.5988 2.44772 11.0465 2 11.5988 2H12.5988C13.1511 2 13.5988 2.44772 13.5988 3V11C13.5988 11.5523 13.1511 12 12.5988 12H11.5988C11.0465 12 10.5988 11.5523 10.5988 11V3Z" fill="white"/>
<path d="M15.5988 1C15.5988 0.447715 16.0465 0 16.5988 0H17.5988C18.1511 0 18.5988 0.447715 18.5988 1V11C18.5988 11.5523 18.1511 12 17.5988 12H16.5988C16.0465 12 15.5988 11.5523 15.5988 11V1Z" fill="white"/>
<path d="M5.59882 6.5C5.59882 5.94772 6.04653 5.5 6.59882 5.5H7.59882C8.1511 5.5 8.59882 5.94772 8.59882 6.5V11C8.59882 11.5523 8.1511 12 7.59882 12H6.59882C6.04653 12 5.59882 11.5523 5.59882 11V6.5Z" fill="white"/>
<path d="M0.598816 9C0.598816 8.44772 1.04653 8 1.59882 8H2.59882C3.1511 8 3.59882 8.44772 3.59882 9V11C3.59882 11.5523 3.1511 12 2.59882 12H1.59882C1.04653 12 0.598816 11.5523 0.598816 11V9Z" fill="white"/>
</svg>
