<svg width="18" height="12" viewBox="0 0 18 12" fill="none" xmlns="http://www.w3.org/2000/svg">
<path fill-rule="evenodd" clip-rule="evenodd" d="M9.09928 2.58753C11.5658 2.58764 13.9381 3.55505 15.7257 5.28982C15.8603 5.42375 16.0755 5.42206 16.208 5.28603L17.4948 3.96045C17.5619 3.89146 17.5994 3.798 17.5988 3.70076C17.5983 3.60353 17.5598 3.51052 17.4918 3.44234C12.7999 -1.14745 5.39789 -1.14745 0.705979 3.44234C0.638013 3.51047 0.59945 3.60345 0.598824 3.70069C0.598197 3.79792 0.635558 3.89141 0.702639 3.96045L1.98978 5.28603C2.12227 5.42226 2.3376 5.42396 2.47213 5.28982C4.25997 3.55494 6.63248 2.58752 9.09928 2.58753ZM9.13473 6.58937C10.4899 6.58929 11.7968 7.10346 12.8013 8.03199C12.9372 8.16376 13.1513 8.16091 13.2837 8.02555L14.569 6.69997C14.6367 6.63044 14.6742 6.53611 14.6733 6.4381C14.6723 6.34008 14.6328 6.24656 14.5638 6.17844C11.5047 3.27385 6.76734 3.27385 3.70826 6.17844C3.63916 6.24656 3.59974 6.34013 3.59883 6.43817C3.59793 6.53622 3.63561 6.63054 3.70344 6.69997L4.98835 8.02555C5.1208 8.16091 5.33483 8.16376 5.47071 8.03199C6.4746 7.10408 7.78041 6.58995 9.13473 6.58937ZM11.7484 9.17672C11.7503 9.27501 11.7125 9.36977 11.6437 9.43863L9.42047 11.7289C9.35529 11.7962 9.26644 11.834 9.17372 11.834C9.08101 11.834 8.99216 11.7962 8.92698 11.7289L6.70334 9.43863C6.63465 9.36972 6.59686 9.27492 6.59889 9.17663C6.60093 9.07834 6.64261 8.98527 6.7141 8.91938C8.13396 7.69354 10.2135 7.69354 11.6334 8.91938C11.7048 8.98532 11.7464 9.07843 11.7484 9.17672Z" fill="white"/>
</svg>
